# xmcd CD database file
#
# Track frame offsets:
#	150
#	18805
#	30048
#	58467
#	83649
#	112824
#	132469
#	149507
#	172900
#	189771
#
# Disc length: 2800 seconds
#
# Revision: 0
# Processed by: cddbd v1.5PL3 Copyright (c) Steve Scherf et al.
# Submitted via: CDex 1.51
#
DISCID=740aee0a
DTITLE=Serenity - Smooth Jazz 1
DYEAR=2003
DGENRE=Jazz
TTITLE0=Struttin' the Avenue
TTITLE1=Piano Magic
TTITLE2=Night Music
TTITLE3=Classical Dance
TTITLE4=Central Park
TTITLE5=Heartstrings
TTITLE6=Lost Baggage
TTITLE7=River Walk
TTITLE8=Alley Cats
TTITLE9=Eternal Flame
EXTD=YEAR: 2003
EXTT0=
EXTT1=
EXTT2=
EXTT3=
EXTT4=
EXTT5=
EXTT6=
EXTT7=
EXTT8=
EXTT9=
PLAYORDER=
